TITLE ""
FILE "Step3_Track23.mp3" MP3
  TRACK 01 AUDIO
    TITLE "Step3_Track23_01"
    INDEX 01 00:00:00
  TRACK 02 AUDIO
    TITLE "Step3_Track23_02"
    INDEX 01 00:00:22
  TRACK 03 AUDIO
    TITLE "Step3_Track23_03"
    INDEX 01 00:01:70
  TRACK 04 AUDIO
    TITLE "Step3_Track23_04"
    INDEX 01 00:02:50
  TRACK 05 AUDIO
    TITLE "Step3_Track23_05"
    INDEX 01 00:03:44
  TRACK 06 AUDIO
    TITLE "Step3_Track23_06"
    INDEX 01 00:03:63
  TRACK 07 AUDIO
    TITLE "Step3_Track23_07"
    INDEX 01 00:06:66
  TRACK 08 AUDIO
    TITLE "Step3_Track23_08"
    INDEX 01 00:07:12
  TRACK 09 AUDIO
    TITLE "Step3_Track23_09"
    INDEX 01 00:08:08
  TRACK 10 AUDIO
    TITLE "Step3_Track23_10"
    INDEX 01 00:08:12
  TRACK 11 AUDIO
    TITLE "Step3_Track23_11"
    INDEX 01 00:10:38
  TRACK 12 AUDIO
    TITLE "Step3_Track23_12"
    INDEX 01 00:10:54
  TRACK 13 AUDIO
    TITLE "Step3_Track23_13"
    INDEX 01 00:11:53
  TRACK 14 AUDIO
    TITLE "Step3_Track23_14"
    INDEX 01 00:11:61
  TRACK 15 AUDIO
    TITLE "Step3_Track23_15"
    INDEX 01 00:14:08
  TRACK 16 AUDIO
    TITLE "Step3_Track23_16"
    INDEX 01 00:14:28
  TRACK 17 AUDIO
    TITLE "Step3_Track23_17"
    INDEX 01 00:15:31
  TRACK 18 AUDIO
    TITLE "Step3_Track23_18"
    INDEX 01 00:15:49
  TRACK 19 AUDIO
    TITLE "Step3_Track23_19"
    INDEX 01 00:18:36
  TRACK 20 AUDIO
    TITLE "Step3_Track23_20"
    INDEX 01 00:18:51
  TRACK 21 AUDIO
    TITLE "Step3_Track23_21"
    INDEX 01 00:19:47
  TRACK 22 AUDIO
    TITLE "Step3_Track23_22"
    INDEX 01 00:19:68
  TRACK 23 AUDIO
    TITLE "Step3_Track23_23"
    INDEX 01 00:22:18
  TRACK 24 AUDIO
    TITLE "Step3_Track23_24"
    INDEX 01 00:22:26
  TRACK 25 AUDIO
    TITLE "Step3_Track23_25"
    INDEX 01 00:23:29
  TRACK 26 AUDIO
    TITLE "Step3_Track23_26"
    INDEX 01 00:23:41
  TRACK 27 AUDIO
    TITLE "Step3_Track23_27"
    INDEX 01 00:26:25
  TRACK 28 AUDIO
    TITLE "Step3_Track23_28"
    INDEX 01 00:26:33
  TRACK 29 AUDIO
    TITLE "Step3_Track23_29"
    INDEX 01 00:27:35
  TRACK 30 AUDIO
    TITLE "Step3_Track23_30"
    INDEX 01 00:27:58
  TRACK 31 AUDIO
    TITLE "Step3_Track23_31"
    INDEX 01 00:30:21
  TRACK 32 AUDIO
    TITLE "Step3_Track23_32"
    INDEX 01 00:30:31
  TRACK 33 AUDIO
    TITLE "Step3_Track23_33"
    INDEX 01 00:31:23
  TRACK 34 AUDIO
    TITLE "Step3_Track23_34"
    INDEX 01 00:31:34
  TRACK 35 AUDIO
    TITLE "Step3_Track23_35"
    INDEX 01 00:34:05
  TRACK 36 AUDIO
    TITLE "Step3_Track23_36"
    INDEX 01 00:34:13
  TRACK 37 AUDIO
    TITLE "Step3_Track23_37"
    INDEX 01 00:35:18
  TRACK 38 AUDIO
    TITLE "Step3_Track23_38"
    INDEX 01 00:35:28
  TRACK 39 AUDIO
    TITLE "Step3_Track23_39"
    INDEX 01 00:37:11
  TRACK 40 AUDIO
    TITLE "Step3_Track23_40"
    INDEX 01 00:37:47
  TRACK 41 AUDIO
    TITLE "Step3_Track23_41"
    INDEX 01 00:38:46
  TRACK 42 AUDIO
    TITLE "Step3_Track23_42"
    INDEX 01 00:38:58
  TRACK 43 AUDIO
    TITLE "Step3_Track23_43"
    INDEX 01 00:40:61
